<svg xmlns="http://www.w3.org/2000/svg" fill="none" viewBox="0 0 166 51"><path d="M60.797 47.474c9.207 0 13.539-3.62 13.539-9.651V27.575c0-6.024-4.34-9.644-13.539-9.644-9.198 0-13.538 3.612-13.538 9.644v10.248c0 6.031 4.332 9.651 13.538 9.651Zm-.031-24.341c5.184 0 6.251 1.922 6.251 5.263v8.605c0 3.35-1.067 5.264-6.251 5.264-5.185 0-6.252-1.923-6.252-5.264v-8.605c0-3.34 1.067-5.263 6.252-5.263Z" fill="#4D4D4F" fill-rule="evenodd" clip-rule="evenodd"/><path d="M94.89 30.916c8.395 2.907 8.673 9.535 12.106 15.566a30.2 30.2 0 0 1-4.165.713c-7.773 0-3.377-11.403-14.98-13.264v13.264s-7.32 0-7.32-3.566V4.93s7.32 0 7.32 3.566v19.955c3.32-.497 5.184-2.907 7.717-7.567 1.067-1.976 3.185-2.682 5.407-2.682a13.87 13.87 0 0 1 3.982.66c-3.082 4.108-4.993 10.085-10.066 12.054Z" fill="#4D4D4F"/><path d="M121.299 23.241c4.332 0 5.463 1.752 5.463 3.729-.871 1.639-3.572 2.273-6.594 2.983-4.969 1.166-10.804 2.537-10.799 8.909 0 6.52 5.686 8.605 11.484 8.605 1.656 0 3.207-.263 4.707-.517 1.407-.237 2.769-.468 4.133-.468a9.616 9.616 0 0 1 4.332.876V27.296c0-5.977-4.396-9.373-12.67-9.373-4.62 0-11.206 1.434-11.206 6.202 0 1.48.51 3.178 2.143 5.318 0-4.613 4.276-6.202 9.007-6.202Zm1.113 11.423c2.041-.45 3.968-.876 4.517-2.105v8.946a14.378 14.378 0 0 1-5.24.985c-3.209 0-5.065-1.264-5.065-3.729 0-2.819 3.001-3.481 5.788-4.097Z" fill="#4D4D4F" fill-rule="evenodd" clip-rule="evenodd"/><path d="M158.53 27.792c0-2.907-1.41-4.55-5.408-4.55a20.26 20.26 0 0 0-5.351.774v23.187s-7.319 0-7.319-3.566V17.931a12.027 12.027 0 0 0 5.065 1.147c2.755 0 5.352-1.147 8.394-1.147 5.798 0 11.946 1.915 11.946 9.047v20.225s-7.319-.109-7.319-3.566l-.008-15.845Z" fill="#4D4D4F"/><path d="M3.406 2.574S29.33.698 29.33 22.652s-6.852 26.357-12.858 27.745c0 0 24.982 5.9 24.982-24.97C41.453-5.442 9.595-1 3.406 2.574Z" fill="#F1634C"/><path d="M24.5 39.9s-2.497 8.528-10.06 9.605C6.876 50.583 5.47 46.56.213 46.84a4.085 4.085 0 0 1 .936-3.07 4.246 4.246 0 0 1 2.89-1.496c4.26-.566 12.242.534 17.545-2.752 0 0 3.161-1.613 3.754-2.396l-.838 2.776Z" fill="#F1634C"/><path d="M3.019 4.109V40.97c.26-.066.524-.117.79-.155a42.529 42.529 0 0 1 4.497-.225c1.581 0 3.272-.062 4.98-.217V27.97c0-4.124-.27-8.334 0-12.45.286-2.486 1.954-4.611 4.33-5.52a7.238 7.238 0 0 1 5.794.372A34.66 34.66 0 0 0 3.019 4.11Z" fill="#F1634C"/></svg>