<svg xmlns="http://www.w3.org/2000/svg" fill="none" viewBox="0 0 24 25"><path d="M12.5 2.5a6.85 6.85 0 0 0-6.85 6.851v5.251a3.64 3.64 0 0 1-1.14 2.65h15.98a3.64 3.64 0 0 1-1.14-2.65v-5.25A6.85 6.85 0 0 0 12.5 2.5ZM23 17.253a2.65 2.65 0 0 1-2.65-2.65V9.35a7.85 7.85 0 1 0-15.7 0v5.251A2.65 2.65 0 0 1 2 17.252a.5.5 0 1 0 0 1h21v-1Zm-12.692 4.053a.749.749 0 0 1 1.023.272 1.351 1.351 0 0 0 2.338 0 .749.749 0 1 1 1.295.751 2.849 2.849 0 0 1-4.928 0 .749.749 0 0 1 .272-1.023Z" fill="#7C8592" fill-rule="evenodd" clip-rule="evenodd"/><path d="m4.51 17.253-.43-.454a.625.625 0 0 0 .43 1.079v-.625Zm15.98 0v.625a.625.625 0 0 0 .43-1.079l-.43.454Zm2.51 0h.625a.625.625 0 0 0-.625-.625v.625Zm0 1v.625c.345 0 .625-.28.625-.625H23Zm-11.669 3.325.54-.314-.54.314Zm-1.023-.272-.314-.54.314.54Zm3.36.272-.54-.314.54.314Zm1.296.751-.54-.313.54.313Zm-4.928 0-.54.314.54-.314ZM6.275 9.351A6.226 6.226 0 0 1 12.5 3.125v-1.25a7.476 7.476 0 0 0-7.475 7.476h1.25Zm0 5.251v-5.25h-1.25v5.25h1.25ZM4.94 17.706a4.266 4.266 0 0 0 1.335-3.104h-1.25c0 .865-.362 1.645-.945 2.197l.86.907Zm15.55-1.078H4.51v1.25h15.98v-1.25Zm-1.765-2.026c0 1.223.514 2.326 1.335 3.104l.86-.907a3.015 3.015 0 0 1-.945-2.197h-1.25Zm0-5.25v5.25h1.25v-5.25h-1.25ZM12.5 3.124a6.226 6.226 0 0 1 6.225 6.226h1.25A7.476 7.476 0 0 0 12.5 1.875v1.25ZM23 16.628a2.025 2.025 0 0 1-2.025-2.026h-1.25A3.275 3.275 0 0 0 23 17.878v-1.25Zm-2.025-2.026v-5.25h-1.25v5.25h1.25Zm0-5.25A8.476 8.476 0 0 0 12.5.874v1.25a7.226 7.226 0 0 1 7.225 7.226h1.25ZM12.5.874A8.476 8.476 0 0 0 4.025 9.35h1.25A7.226 7.226 0 0 1 12.5 2.125V.875ZM4.025 9.351v5.251h1.25v-5.25h-1.25Zm0 5.251A2.025 2.025 0 0 1 2 16.628v1.25a3.275 3.275 0 0 0 3.275-3.276h-1.25ZM2 16.628c-.621 0-1.125.503-1.125 1.125h1.25a.125.125 0 0 1-.125.125v-1.25ZM.875 17.753c0 .621.504 1.125 1.125 1.125v-1.25c.069 0 .125.056.125.125H.875ZM2 18.878h21v-1.25H2v1.25Zm21.625-.625v-1h-1.25v1h1.25Zm-11.753 3.011a1.374 1.374 0 0 0-1.878-.499l.627 1.081a.124.124 0 0 1 .17.046l1.08-.628Zm.628.362a.726.726 0 0 1-.628-.362l-1.082.628c.354.61 1.005.984 1.71.984v-1.25Zm.628-.362a.726.726 0 0 1-.628.362v1.25c.705 0 1.356-.375 1.71-.985l-1.082-.627Zm1.878-.499a1.374 1.374 0 0 0-1.878.5l1.082.627c.034-.06.11-.08.169-.046l.627-1.08Zm.499 1.878a1.374 1.374 0 0 0-.5-1.878l-.626 1.081c.059.035.079.11.045.17l1.08.627Zm-3.005 1.73a3.474 3.474 0 0 0 3.005-1.73l-1.082-.627a2.224 2.224 0 0 1-1.923 1.108v1.25Zm-3.005-1.73a3.474 3.474 0 0 0 3.005 1.73v-1.25a2.224 2.224 0 0 1-1.924-1.107l-1.08.627Zm.5-1.878a1.374 1.374 0 0 0-.5 1.878l1.082-.627a.124.124 0 0 1 .044-.17l-.627-1.08Z" fill="#7C8592"/></svg>