<svg xmlns="http://www.w3.org/2000/svg" fill="none" viewBox="0 0 24 26"><path d="M20.814 17.003H7.432a2.78 2.78 0 0 1-1.407-.38v1.829a1.41 1.41 0 0 0 1.407 1.409H20.16a2.728 2.728 0 0 1 2.72 2.722 2.728 2.728 0 0 1-2.72 2.723 2.725 2.725 0 0 1-2.72-2.723c0-.5.135-.969.374-1.374h-6.06c.24.4.375.875.375 1.374a2.728 2.728 0 0 1-2.72 2.723 2.725 2.725 0 0 1-2.72-2.723c0-.51.144-.989.389-1.399a2.76 2.76 0 0 1-2.4-2.732V3.676L1.412 2.297a.674.674 0 1 1 .524-1.244l3.678 1.549a.833.833 0 0 0 .065.03.026.026 0 0 0 .008.005c.002.001.005.002.007.005.01.005.025.015.04.025l.015.012.015.013a.069.069 0 0 0 .01.007c.004.003.008.005.01.008.015.01.025.02.035.03l.015.015.03.03.015.015.01.015.01.015a.11.11 0 0 0 .007.012.11.11 0 0 1 .008.013l.007.012a.11.11 0 0 1 .008.013c.01.01.015.02.02.03l.005.01a.025.025 0 0 0 .005.01.15.15 0 0 1 .022.05.038.038 0 0 1 .003.01L6 3.032l.002.012a.028.028 0 0 1 .003.013l.005.02a.156.156 0 0 0 .005.02l.002.022a.138.138 0 0 1 .003.022c.005.01.005.015.005.02.005.02.005.045.005.07V5.6l16.96 2.343c.006 0 .01.002.014.003l.006.002a.11.11 0 0 1 .04.005c.002 0 .005 0 .009.002a.06.06 0 0 0 .016.003c.01 0 .025.005.035.01a.07.07 0 0 0 .015.005.07.07 0 0 1 .015.005l.03.015.03.015.03.015c.01.01.02.015.03.02l.012.007a.103.103 0 0 0 .013.008c.005.002.01.006.015.01l.015.01a.03.03 0 0 1 .012.01.05.05 0 0 0 .013.01l.025.025.002.002.003.002a.058.058 0 0 1 .015.016.05.05 0 0 0 .01.012.048.048 0 0 1 .01.013c.002.005.006.008.01.012a.048.048 0 0 1 .01.013c.01.01.015.015.02.025.002.005.006.01.01.015a.1.1 0 0 1 .01.015.11.11 0 0 0 .007.012l.008.013.015.03c.005.005.01.015.014.025l.015.035a.056.056 0 0 1 .004.009l.002.005c0 .005.002.01.005.015l.005.015c0 .005.002.01.005.015l.004.018a.072.072 0 0 0 .006.017c0 .005 0 .01.002.015l.003.015c0 .005 0 .012.002.018l.002.017c.005.01.005.02.005.03v5.694a2.762 2.762 0 0 1-2.755 2.757Zm-11.4 6.949c.754 0 1.373-.615 1.373-1.374 0-.76-.62-1.374-1.373-1.374a1.38 1.38 0 0 0-1.373 1.374c0 .754.62 1.374 1.373 1.374Zm12.124-1.374c0 .76-.619 1.374-1.373 1.374a1.38 1.38 0 0 1-1.372-1.374 1.38 1.38 0 0 1 1.372-1.374c.754 0 1.373.615 1.373 1.374ZM7.432 15.655h13.382a1.41 1.41 0 0 0 1.408-1.414v-5.05L6.025 6.958v7.288a1.41 1.41 0 0 0 1.407 1.409Z" fill="#6E7FAA" fill-rule="evenodd" clip-rule="evenodd"/><path d="m6.025 16.624.126-.216-.376-.22v.436h.25Zm11.79 4.585.214.128.224-.378h-.439v.25Zm-6.06 0v-.25h-.442l.227.379.215-.129Zm-4.677-.025.215.129.195-.328-.378-.049-.032.248Zm-2.4-17.508h.25V3.51l-.154-.064-.097.23ZM1.412 2.297l.097-.23-.097.23Zm.524-1.244.097-.23-.097.23Zm3.678 1.549.112-.224-.007-.003-.008-.003-.097.23Zm.033.015.102-.229-.102.229Zm.032.015.177-.177-.028-.029-.037-.018-.112.224Zm.015.01-.177.177.03.028.035.018.112-.223Zm.04.025.177-.177-.017-.017-.021-.014-.139.208Zm.03.025-.177.177.177-.177Zm.01.007-.139.208.14-.208Zm0 0 .142-.206-.003-.002-.139.208Zm0 0-.141.206.002.002.14-.208Zm.01.008-.177.177.018.017.02.014.14-.208Zm.035.03-.177.177.177-.177Zm.015.015.177-.177-.177.177Zm.045.045.224-.112-.018-.036-.03-.029-.176.177Zm.01.015-.2.15.2-.15Zm0 0 .2-.15-.2.15Zm.04.065-.224.111.018.037.03.028.176-.176Zm.02.03-.224.111.018.037.029.028.177-.176Zm.005.01-.237.079.237-.08Zm.005.01.208-.139-.014-.02-.017-.018-.177.177Zm.02.04h.25v-.041l-.013-.038-.237.079Zm.002.01.244-.058-.003-.01-.003-.011-.238.079Zm0 0-.243.057.003.01.003.012.237-.08Zm.003.01h-.25v.04l.013.039.237-.08ZM6 3.032h.25V2.99l-.013-.038-.237.08Zm.005.025h-.25v.04l.013.038.237-.078Zm.005.02-.245.048.245-.049Zm.005.02h.25v-.041l-.013-.039-.237.08Zm.005.044h-.25v.06l.026.052.224-.112Zm.005.02h-.25v.031l.007.03.243-.06ZM6.03 5.6h-.25v.218l.216.03.034-.248Zm16.96 2.343-.034.248.017.002h.017v-.25Zm.014.003.096-.23-.096.23Zm.046.007-.079.237.039.013h.04v-.25Zm.009.002-.07.24.07-.24Zm.066.018-.06.242.06-.242Zm.015.005.112-.224-.112.224Zm.03.015-.112.223.112-.223Zm.03.015.112-.224-.112.224Zm.03.015.177-.177-.029-.029-.036-.018-.112.224Zm.043.027-.14.208.14-.208Zm.027.018.15-.2-.15.2Zm.027.02-.177.176.177-.176Zm.013.01.177-.177-.029-.029-.036-.018-.112.224Zm.025.025-.177.176.005.006.006.005.166-.187Zm.002.002-.166.187.006.005.006.005.154-.197Zm.003.002-.154.197.002.002.152-.199Zm.015.016-.224.111.224-.111Zm.01.012-.177.177.177-.177Zm.02.025-.177.177.177-.177Zm.01.013-.224.111.018.037.029.028.177-.176Zm.02.025.223-.112-.223.112Zm.027.042-.208.139.208-.139Zm.008.013-.224.111.224-.111Zm.015.03-.224.111.018.037.029.028.177-.176Zm.014.025.238-.08-.006-.016-.008-.016-.224.112Zm.015.035-.223.111.224-.111Zm.004.009.24-.07-.24.07Zm.002.005-.243.061.242-.06Zm.014.045.238-.079-.006-.016-.008-.016-.224.111Zm.005.018-.244.053.244-.053Zm.006.017h.25v-.059l-.027-.052-.223.111Zm.002.015.243-.057v-.003l-.243.06Zm0 0-.243.058v.003l.243-.06Zm.005.033.247-.041-.002-.008-.245.049Zm0 0-.247.041.002.008.245-.05Zm.002.017h-.25v.06l.027.052.223-.112Zm-1.342 5.72h-.25.25Zm0-5.05h.25v-.218l-.216-.03-.034.248ZM6.025 6.958l.034-.248-.284-.039v.287h.25Zm1.407 10.295h13.382v-.5H7.432v.5Zm-1.534-.414c.447.262.975.414 1.534.414v-.5c-.468 0-.909-.127-1.28-.345l-.254.431Zm.377 1.613v-1.828h-.5v1.828h.5Zm1.157 1.159a1.16 1.16 0 0 1-1.157-1.159h-.5c0 .912.74 1.659 1.657 1.659v-.5Zm12.728 0H7.432v.5H20.16v-.5Zm2.97 2.972a2.978 2.978 0 0 0-2.97-2.972v.5c1.36 0 2.47 1.111 2.47 2.472h.5Zm-2.97 2.973a2.978 2.978 0 0 0 2.97-2.973h-.5a2.478 2.478 0 0 1-2.47 2.473v.5Zm-2.97-2.973a2.975 2.975 0 0 0 2.97 2.973v-.5a2.475 2.475 0 0 1-2.47-2.473h-.5Zm.41-1.501c-.263.443-.41.956-.41 1.501h.5c0-.454.122-.88.34-1.246l-.43-.255Zm-5.845.377h6.06v-.5h-6.06v.5Zm.624 1.124c0-.544-.147-1.063-.41-1.502l-.429.257c.217.36.34.79.34 1.245h.5Zm-2.97 2.973a2.978 2.978 0 0 0 2.97-2.973h-.5a2.478 2.478 0 0 1-2.47 2.473v.5Zm-2.97-2.973a2.975 2.975 0 0 0 2.97 2.973v-.5a2.475 2.475 0 0 1-2.47-2.473h-.5Zm.424-1.527a2.98 2.98 0 0 0-.424 1.527h.5c0-.462.13-.897.354-1.27l-.43-.257Zm-2.436-2.604a3.01 3.01 0 0 0 2.619 2.98l.064-.495a2.51 2.51 0 0 1-2.183-2.485h-.5Zm0-4.196v4.196h.5v-4.196h-.5Zm0-3.322v3.322h.5v-3.322h-.5Zm0-3.716v3.716h.5V7.218h-.5Zm0-.485v.485h.5v-.485h-.5Zm0-3.057v3.057h.5V3.676h-.5ZM1.315 2.528 4.58 3.906l.194-.46-3.264-1.38-.195.462ZM.823 1.316a.924.924 0 0 0 .493 1.212l.194-.461a.424.424 0 0 1-.226-.557l-.461-.194Zm1.21-.493a.923.923 0 0 0-1.21.493l.46.194a.423.423 0 0 1 .557-.226l.194-.461Zm3.68 1.549L2.032.823l-.193.46 3.678 1.55.194-.461Zm.037.016a.624.624 0 0 1-.023-.01l-.223.447a.368.368 0 0 0 .042.02l.204-.457Zm.042.02-.042-.02-.204.457a.615.615 0 0 1 .022.01l.224-.447Zm.008.005c-.003 0 .028.013.057.042l-.353.354c.034.034.07.05.072.051l.224-.447Zm.072.052c-.034-.034-.07-.05-.072-.052l-.224.447a.195.195 0 0 1-.058-.041l.354-.354Zm.002-.006a.525.525 0 0 0-.067-.04l-.224.446a.137.137 0 0 1-.006-.003l.002.001.018.012.277-.416Zm.026.02c-.003-.002-.001 0 0 0a.157.157 0 0 1 .012.011l-.354.354c.02.019.038.032.042.035l.3-.4Zm.042.036c-.02-.02-.038-.033-.042-.036l-.3.4c.003.003.002.002 0 0a.156.156 0 0 1-.012-.01l.354-.354Zm-.028-.024.003.002a.192.192 0 0 1 .025.022l-.354.354a.286.286 0 0 0 .035.029l.013.01.278-.417Zm0 0-.277.416.277-.416Zm.003.002-.283.412.283-.412Zm.045.037a.287.287 0 0 0-.034-.029l-.014-.01-.278.416-.002-.002a.2.2 0 0 1-.026-.021l.354-.354Zm.035.03c-.01-.01-.036-.036-.073-.061l-.278.416a.076.076 0 0 1-.008-.006s0-.001 0 0l.005.005.354-.354Zm.015.015-.015-.015-.354.354.015.014.354-.353Zm.03.03-.03-.03-.354.353.03.03.354-.353Zm.015.015-.015-.015-.354.353.015.015.354-.353Zm.033.042c-.002-.003-.001-.002 0 0 .002.003.008.011.014.023l-.448.223c.015.03.034.053.034.054l.4-.3Zm0 0-.4.3.4-.3Zm.034.053c-.015-.03-.034-.053-.034-.053l-.4.3a.186.186 0 0 1-.014-.023l.448-.224Zm-.008-.014.008.014-.448.223c.01.02.02.036.023.04l.417-.277Zm.023.039c-.01-.02-.021-.036-.023-.04l-.417.278-.008-.015.448-.223Zm-.009-.014.009.014-.448.223c.01.02.02.036.023.04l.416-.277Zm.024.039a.3.3 0 0 0-.024-.04l-.416.278-.008-.015.448-.223Zm.02.03c-.006-.01-.026-.054-.067-.095l-.354.353a.167.167 0 0 1-.023-.029l-.004-.006.448-.223Zm.018.043a.31.31 0 0 0-.012-.03.265.265 0 0 0-.053-.078l-.354.353a.235.235 0 0 1-.048-.068l-.007-.02.474-.157Zm-.055-.088a.235.235 0 0 1 .048.069l.007.019-.474.158a.334.334 0 0 0 .011.03.265.265 0 0 0 .054.077l.354-.353Zm.08.138a.398.398 0 0 0-.05-.1l-.415.277-.004-.007a.122.122 0 0 1-.005-.012l.474-.158Zm.003.01.002.007a.225.225 0 0 1 .008.062h-.5c0 .035.008.063.01.07l.005.019.475-.158Zm.006.021-.487.115.487-.115Zm.009.068a.243.243 0 0 0-.01-.07l-.005-.02-.475.159-.002-.008a.224.224 0 0 1-.008-.061h.5Zm.002-.034-.015-.045-.474.158.015.045.474-.158Zm.002.012c0-.004.01.027.01.067h-.5c0 .05.015.087.016.091l.474-.158Zm.016.092a.259.259 0 0 0-.016-.092l-.474.158c.001.004-.01-.027-.01-.067h.5Zm0-.03a.366.366 0 0 0-.013-.05l-.474.159-.003-.01.49-.098Zm-.003-.01c.003.01.004.017.003.01l-.49.098c0 .007.005.027.013.05l.474-.158Zm.012.06v-.002.022h-.5c0 .031.006.06.007.063l.493-.082Zm.006.064a.327.327 0 0 0-.006-.063l-.493.082v.003-.002a.16.16 0 0 1-.001-.02h.5Zm.005.02c0-.002 0-.027-.006-.057a.297.297 0 0 0-.026-.074l-.447.223a.204.204 0 0 1-.017-.05c-.005-.024-.004-.044-.004-.042h.5Zm.005.07c0-.015.001-.074-.013-.13l-.485.121a.116.116 0 0 1-.002-.013v-.001a.208.208 0 0 1 0 .023h.5Zm0 0h-.5.5Zm0 2.368V3.231h-.5V5.6h.5Zm16.745 2.095L6.064 5.351l-.068.496 16.96 2.343.069-.496Zm.075.02c-.007-.003-.05-.022-.11-.022v.5a.221.221 0 0 1-.058-.008c-.015-.004-.026-.01-.024-.008l.192-.462Zm-.09-.017a.24.24 0 0 1 .072.01l.018.007-.192.462a.232.232 0 0 0 .024.009.26.26 0 0 0 .078.012v-.5Zm.12.018c-.057-.02-.102-.018-.12-.018v.5h.005a.12.12 0 0 1-.027-.004.154.154 0 0 1-.017-.004l.159-.474Zm0-.001-.018-.005c-.006-.001-.03-.007-.062-.007v.5a.239.239 0 0 1-.054-.006l-.008-.002.141-.48Zm-.055-.007a.21.21 0 0 1 .045.005l.01.002-.142.48.026.006a.291.291 0 0 0 .061.007v-.5Zm.147.036a.339.339 0 0 0-.147-.036v.5a.204.204 0 0 1-.054-.008.136.136 0 0 1-.023-.009l.224-.447Zm-.036-.014c-.004 0 0 0 .006.002a.2.2 0 0 1 .03.012l-.224.447a.28.28 0 0 0 .066.024l.122-.485Zm.066.024c-.033-.016-.064-.023-.066-.024l-.121.485-.007-.001a.2.2 0 0 1-.03-.013l.224-.447Zm.03.015-.03-.015-.224.447.03.015.224-.447Zm.03.015-.03-.015-.224.447.03.015.224-.447Zm.03.015-.03-.015-.224.447.03.015.224-.447Zm.03.02.006.004a.17.17 0 0 1 .029.023l-.354.354c.042.041.085.061.095.066l.224-.447Zm.04.023c-.005-.002-.02-.013-.04-.023l-.224.447-.014-.008.277-.416Zm-.015-.008.014.008-.277.416a.221.221 0 0 0 .04.023l.223-.447Zm.053.034s-.024-.02-.053-.034l-.224.447a.192.192 0 0 1-.022-.013c-.003-.001-.004-.003-.001 0l.3-.4Zm-.023-.014.022.013c.003.002.004.003.001 0l-.3.4c0 .001.024.02.053.034l.224-.447Zm.077.057a.327.327 0 0 0-.077-.057l-.224.447a.217.217 0 0 1-.043-.028l-.01-.009.354-.353Zm-.052-.037c.02.01.034.021.043.028l.01.01-.354.352.02.02c.013.01.032.025.057.037l.224-.447Zm.09.072-.025-.025-.354.353.025.025.354-.353Zm-.009-.008-.002-.002-.332.374.002.002.332-.374Zm-.009-.008-.003-.002-.308.394.003.002.308-.394Zm.084.101a.286.286 0 0 0-.055-.076l-.03-.026-.305.397-.015-.014a.218.218 0 0 1-.042-.058l.447-.223Zm-.036-.053.008.01a.214.214 0 0 1 .028.043l-.447.223a.287.287 0 0 0 .057.078l.354-.354Zm.056.078a.287.287 0 0 0-.037-.056l-.02-.022-.353.354-.009-.01a.214.214 0 0 1-.028-.043l.447-.223Zm-.036-.053.008.01a.223.223 0 0 1 .028.043l-.447.223a.283.283 0 0 0 .037.057l.02.02.354-.353Zm.056.078a.287.287 0 0 0-.056-.078l-.354.354-.009-.01a.218.218 0 0 1-.028-.043l.447-.223Zm.02.025c-.025-.05-.058-.081-.066-.09l-.354.353.003.004a.198.198 0 0 1-.03-.043l.447-.224Zm-.013-.023c-.003-.004-.002-.002 0 0 .002.003.008.011.013.023l-.447.223c.014.03.033.053.034.054l.4-.3Zm.033.053a.277.277 0 0 0-.033-.053l-.4.3-.001-.001-.013-.023.447-.223Zm-.008-.015.008.015-.447.223c.01.02.02.036.023.04l.416-.278Zm.023.04a.341.341 0 0 0-.023-.04l-.416.278c.003.003-.003-.004-.008-.015l.447-.223Zm.015.03-.015-.03-.447.223.015.03.447-.223Zm.015.025-.014-.027c-.005-.008-.02-.036-.048-.063l-.353.353a.222.222 0 0 1-.033-.042c-.002-.003-.002-.004 0 .002l.448-.223Zm.015.035-.003-.006.002.004-.475.158a.452.452 0 0 0 .029.067l.447-.223Zm.02.051a.298.298 0 0 0-.02-.051l-.447.223a.192.192 0 0 1-.013-.033l.48-.139Zm.004.015a.448.448 0 0 0-.004-.015l-.48.139-.001-.003.485-.121Zm-.014-.036a.21.21 0 0 1 .012.03l.002.006-.485.121c0 .002.007.033.024.066l.447-.223Zm.024.066a.264.264 0 0 0-.024-.066l-.447.223a.211.211 0 0 1-.012-.03l-.002-.006.485-.121Zm-.014-.036c.006.012.01.023.012.03l.002.006-.485.121c0 .002.007.033.024.066l.447-.223Zm.025.075c0-.005-.005-.022-.011-.043l-.475.158-.002-.008.488-.107Zm-.015-.04a.208.208 0 0 1 .014.034l.001.006-.488.107c0 .002.007.038.026.076l.447-.223Zm.021.066c0-.004 0 0 .002.007.001.007.004.02.004.038h-.5a.24.24 0 0 0 .005.054l.004.022.485-.121Zm.001.003-.486.115.486-.115Zm.01.072a.291.291 0 0 0-.006-.053L23.8 8.41l-.485.121-.001-.007a.209.209 0 0 1-.003-.039h.5Zm-.003-.031c0-.004 0-.002 0 0a.216.216 0 0 1 .003.031h-.5c0 .022.002.04.003.048l.004.019.49-.098Zm.002.008-.494.082.494-.082Zm.005.058a.304.304 0 0 0-.003-.047l-.004-.02-.49.099v-.001a.216.216 0 0 1-.003-.03h.5Zm.005.03c0-.003.004-.071-.03-.141l-.448.223a.207.207 0 0 1-.02-.066l-.002-.016h.5Zm0 .04v-.04h-.5v.04h.5Zm0 .02v-.02h-.5v.02h.5Zm0 5.635V8.611h-.5v5.635h.5Zm-3.005 3.007a3.012 3.012 0 0 0 3.005-3.007h-.5a2.512 2.512 0 0 1-2.505 2.507v.5Zm-10.277 5.325c0 .62-.507 1.124-1.123 1.124v.5c.891 0 1.623-.726 1.623-1.624h-.5Zm-1.123-1.124c.616 0 1.123.503 1.123 1.124h.5c0-.898-.732-1.624-1.623-1.624v.5ZM8.29 22.578a1.13 1.13 0 0 1 1.123-1.124v-.5a1.63 1.63 0 0 0-1.623 1.624h.5Zm1.123 1.124a1.129 1.129 0 0 1-1.123-1.124h-.5a1.63 1.63 0 0 0 1.623 1.624v-.5Zm10.751.5c.892 0 1.623-.726 1.623-1.624h-.5c0 .62-.507 1.124-1.123 1.124v.5Zm-1.622-1.624c0 .892.73 1.624 1.622 1.624v-.5a1.129 1.129 0 0 1-1.122-1.124h-.5Zm1.622-1.624c-.892 0-1.622.732-1.622 1.624h.5a1.13 1.13 0 0 1 1.122-1.124v-.5Zm1.623 1.624c0-.898-.731-1.624-1.623-1.624v.5c.616 0 1.123.503 1.123 1.124h.5Zm-.974-7.173H7.432v.5h13.382v-.5Zm1.158-1.164a1.16 1.16 0 0 1-1.158 1.164v.5a1.66 1.66 0 0 0 1.658-1.664h-.5Zm0-5.05v5.05h.5v-5.05h-.5ZM5.99 7.205l16.197 2.233.068-.495L6.059 6.71l-.068.495Zm.284.003v-.25h-.5v.25h.5Zm0 3.716V7.208h-.5v3.716h.5Zm0 3.322v-3.322h-.5v3.322h.5Zm1.157 1.159a1.16 1.16 0 0 1-1.157-1.159h-.5c0 .912.74 1.659 1.657 1.659v-.5Z" fill="#6E7FAA"/></svg>