<svg xmlns="http://www.w3.org/2000/svg" fill="none" viewBox="0 0 22 22"><path d="M7.597 0H2.544A2.547 2.547 0 0 0 0 2.544v5.053a2.547 2.547 0 0 0 2.544 2.544h5.053a2.547 2.547 0 0 0 2.544-2.544V2.544A2.547 2.547 0 0 0 7.597 0Zm.825 7.597c0 .455-.37.825-.825.825H2.544a.826.826 0 0 1-.825-.825V2.544c0-.455.37-.825.825-.825h5.053c.455 0 .825.37.825.825v5.053Zm11-7.597h-4.985a2.581 2.581 0 0 0-2.578 2.578v4.985a2.581 2.581 0 0 0 2.579 2.578h4.984A2.581 2.581 0 0 0 22 7.562V2.579A2.581 2.581 0 0 0 19.422 0Zm.86 7.563a.86.86 0 0 1-.86.859h-4.985a.86.86 0 0 1-.859-.86V2.579a.86.86 0 0 1 .86-.86h4.984a.86.86 0 0 1 .86.86v4.985ZM2.543 11.858h5.053a2.547 2.547 0 0 1 2.544 2.544v5.053A2.547 2.547 0 0 1 7.597 22H2.544A2.547 2.547 0 0 1 0 19.456v-5.053a2.547 2.547 0 0 1 2.544-2.544Zm5.053 8.422c.455 0 .825-.37.825-.825v-5.053a.826.826 0 0 0-.825-.825H2.544a.826.826 0 0 0-.825.825v5.053c0 .455.37.825.825.825h5.053Zm11.825-8.422h-4.985a2.581 2.581 0 0 0-2.578 2.579v4.984A2.581 2.581 0 0 0 14.438 22h4.984A2.581 2.581 0 0 0 22 19.422v-4.985a2.581 2.581 0 0 0-2.578-2.578Zm.86 7.563a.86.86 0 0 1-.86.86h-4.985a.86.86 0 0 1-.859-.86v-4.985a.86.86 0 0 1 .86-.859h4.984a.86.86 0 0 1 .86.86v4.984Z" fill="#6E7FAA" fill-rule="evenodd" clip-rule="evenodd"/></svg>