<svg xmlns="http://www.w3.org/2000/svg" fill="none" viewBox="0 0 64 64"><g filter="url(#a)"><rect fill="#fff" width="56" height="56" x="4" y="1" rx="10"/></g><path d="m37.535 17.55-2.965-.005c-3.332 0-5.485 2.213-5.485 5.638v2.6h-2.982a.467.467 0 0 0-.467.467v3.767c0 .258.21.467.467.467h2.982v9.503c0 .258.208.468.466.468h3.89c.258 0 .467-.21.467-.468v-9.503h3.486a.467.467 0 0 0 .467-.467l.001-3.767a.468.468 0 0 0-.467-.467h-3.487v-2.204c0-1.059.252-1.596 1.629-1.596l1.998-.001c.257 0 .466-.21.466-.467v-3.498a.467.467 0 0 0-.466-.467Z" fill="#3B5998" fill-rule="evenodd" clip-rule="evenodd"/><defs><filter id="a" width="64" height="64" x="0" y="0" color-interpolation-filters="sRGB" filterUnits="userSpaceOnUse"><feFlood flood-opacity="0" result="BackgroundImageFix"/><feColorMatrix in="SourceAlpha" result="hardAlpha" type="matrix" values="0 0 0 0 0 0 0 0 0 0 0 0 0 0 0 0 0 0 127 0"/><feOffset dy="3"/><feGaussianBlur stdDeviation="2"/><feColorMatrix type="matrix" values="0 0 0 0 0.224867 0 0 0 0 0.354404 0 0 0 0 0.720279 0 0 0 0.100661 0"/><feBlend in2="BackgroundImageFix" mode="normal" result="effect1_dropShadow_13_124"/><feBlend in="SourceGraphic" in2="effect1_dropShadow_13_124" mode="normal" result="shape"/></filter></defs></svg>