<svg xmlns="http://www.w3.org/2000/svg" fill="none" viewBox="0 0 17 18"><path d="M2.988 1.082a.58.58 0 0 1 .594 0c.17.1.277.28.289.476v1.624a2.298 2.298 0 0 1 1.7 2.229A2.3 2.3 0 0 1 3.95 7.618l-.078.022v8.436a.59.59 0 0 1-.587.581.59.59 0 0 1-.583-.533l-.003-.048V7.64A2.3 2.3 0 0 1 1 5.41a2.3 2.3 0 0 1 1.62-2.206l.08-.022V1.608a.596.596 0 0 1 .288-.526Zm6.095.635a.59.59 0 0 0-.583-.533.59.59 0 0 0-.586.581v8.177l-.079.022a2.3 2.3 0 0 0-1.62 2.207c0 1.049.698 1.965 1.699 2.23v1.832l.002.049c.03.3.281.533.584.533a.59.59 0 0 0 .586-.582V14.4l.078-.022a2.3 2.3 0 0 0 1.62-2.207 2.299 2.299 0 0 0-1.698-2.23V1.765l-.003-.048Zm5.215.158a.59.59 0 0 0-.584-.533.59.59 0 0 0-.586.581v1.574l-.078.022a2.3 2.3 0 0 0-1.62 2.208 2.3 2.3 0 0 0 1.698 2.23v8.435l.001.05c.012.196.12.375.289.476.183.11.41.11.594 0a.596.596 0 0 0 .289-.526V7.956l.078-.022A2.31 2.31 0 0 0 16 5.726a2.309 2.309 0 0 0-1.7-2.229V1.923l-.002-.048Zm-6.584 9.5a1.1 1.1 0 0 1 1.211-.245c.416.175.687.586.686 1.042A1.12 1.12 0 0 1 8.5 13.298a1.11 1.11 0 0 1-1.027-.696 1.138 1.138 0 0 1 .24-1.228Zm6-6.776a1.12 1.12 0 0 0-1.111 1.128 1.12 1.12 0 0 0 1.111 1.127 1.122 1.122 0 0 0 1.113-1.128A1.12 1.12 0 0 0 13.715 4.6Zm-11.216.016A1.1 1.1 0 0 1 3.71 4.37c.415.174.687.585.687 1.04 0 .623-.497 1.127-1.11 1.129-.45 0-.856-.274-1.029-.695a1.139 1.139 0 0 1 .24-1.229Z" fill="#B6BED4" fill-rule="evenodd" clip-rule="evenodd"/><path d="M3.582 1.082 3.71.867l-.128.215Zm-.594 0 .128.215-.128-.215Zm.883.476.25-.005v-.01l-.25.015Zm0 .05h.25v-.005l-.25.005Zm0 1.574h-.25v.192l.187.05.064-.242Zm.079 4.436.068.24h.005l-.073-.24Zm-.078.022-.069-.24-.181.051v.19h.25Zm0 8.436.25.006v-.006h-.25Zm-1.17.048-.25.016.001.01.25-.026Zm-.003-.048h-.25v.016l.25-.016Zm0-8.436h.25v-.192l-.186-.05-.064.242Zm-.078-4.436-.068-.24h-.005l.073.24Zm.078-.022.068.24.182-.052v-.188H2.7Zm0-1.574h.25v-.006l-.25.006Zm6.384.11.25-.016-.001-.01-.249.025Zm-1.17.047-.25-.005v.005h.25Zm0 8.177.069.24.182-.051v-.19h-.25Zm-.078.022-.068-.24h-.004l.072.24Zm.079 4.437h.25v-.193l-.187-.05-.063.243Zm0 1.832h-.25v.016l.25-.015Zm.002.049-.25.015.002.01.248-.025Zm1.17-.049.25.006v-.006h-.25Zm0-1.833-.068-.24-.182.051v.19h.25Zm.078-.022.069.24h.004l-.073-.24Zm-.078-4.437h-.25v.193l.186.05.064-.243Zm0-8.176h.25V1.75l-.25.015Zm5.212.11.25-.015-.001-.01-.25.025Zm-1.17.048-.25-.005v.005h.25Zm0 1.574.069.24.181-.051v-.189h-.25Zm-.078.022-.068-.24-.005.001.073.24Zm.078 4.437h.25v-.192l-.186-.05-.064.242Zm0 8.436h-.25v.005l.25-.005Zm.001.05-.25.005v.01l.25-.015Zm.289.476.128-.215-.128.215Zm.594 0-.128-.215.127.215Zm.289-.526h-.25v.006l.25-.006Zm0-8.436-.07-.24-.18.052v.188h.25Zm.078-.022.07.24.003-.001-.073-.239ZM16 5.726l.25.001v-.001H16Zm-1.7-2.229h-.25v.192l.186.05.065-.242Zm0-1.574h.25v-.015l-.25.015Zm-6.586 9.451.178.176-.178-.176Zm1.897.798h.25-.25ZM8.5 13.298v.25-.25Zm4.103-7.571h.25-.25Zm1.112-1.128v-.25.25Zm0 2.255v.25-.25Zm1.112-1.128h.25-.25ZM2.498 4.616l.178.175-.178-.176Zm1.899.795h.25-.25Zm-1.11 1.128v.25-.25Zm-1.029-.695.231-.095-.23.095ZM3.71.867a.83.83 0 0 0-.85 0l.256.43a.33.33 0 0 1 .338 0l.256-.43Zm.41.676a.846.846 0 0 0-.41-.676l-.256.43c.097.057.16.161.167.276l.5-.03Zm.002.06-.001-.05-.5.01v.05l.5-.01Zm0 1.579V1.608h-.5v1.574h.5ZM5.82 5.41c0-1.16-.773-2.177-1.885-2.471l-.128.483A2.049 2.049 0 0 1 5.32 5.411h.5ZM4.023 7.857A2.55 2.55 0 0 0 5.82 5.411h-.5a2.05 2.05 0 0 1-1.444 1.968l.146.478Zm-.083.024.078-.022-.136-.481-.079.022.137.48Zm.182 8.195V7.64h-.5v8.436h.5Zm-.837.831a.84.84 0 0 0 .837-.825l-.5-.011a.34.34 0 0 1-.337.336v.5Zm-.832-.758a.84.84 0 0 0 .832.758v-.5a.34.34 0 0 1-.334-.308l-.498.05Zm-.003-.058.003.048.499-.03-.003-.048-.5.03Zm0-8.45v8.435h.5V7.64h-.5ZM.75 5.41c0 1.16.773 2.177 1.885 2.471l.128-.483A2.049 2.049 0 0 1 1.25 5.41h-.5Zm1.798-2.447A2.55 2.55 0 0 0 .75 5.411h.5c0-.912.592-1.71 1.443-1.968l-.145-.479Zm.083-.023-.078.022.136.481.078-.022-.136-.481Zm-.182-1.333v1.574h.5V1.608h-.5Zm.412-.741a.846.846 0 0 0-.412.746l.5-.01a.346.346 0 0 1 .167-.306l-.255-.43Zm5.639.567a.34.34 0 0 1 .334.308l.498-.05A.84.84 0 0 0 8.5.934v.5Zm-.336.337a.34.34 0 0 1 .336-.337v-.5a.84.84 0 0 0-.836.826l.5.01Zm0 8.17V1.766h-.5v8.177h.5Zm-.26.263.078-.022-.137-.48-.078.021.136.481Zm-1.44 1.967c0-.912.592-1.71 1.444-1.968l-.145-.478a2.55 2.55 0 0 0-1.799 2.446h.5Zm1.513 1.988a2.049 2.049 0 0 1-1.513-1.988h-.5c0 1.16.773 2.177 1.886 2.471l.127-.483Zm.187 2.074V14.4h-.5v1.832h.5Zm.002.033-.003-.048-.499.03.003.049.499-.03Zm.334.299a.34.34 0 0 1-.335-.309l-.497.05a.84.84 0 0 0 .832.759v-.5Zm.336-.337a.34.34 0 0 1-.336.337v.5a.84.84 0 0 0 .836-.826l-.5-.01Zm0-1.828v1.833h.5V14.4h-.5Zm.26-.262-.078.022.136.48.079-.022-.137-.48Zm1.438-1.967a2.05 2.05 0 0 1-1.442 1.968l.145.478a2.55 2.55 0 0 0 1.797-2.446h-.5Zm-1.512-1.988a2.05 2.05 0 0 1 1.512 1.988h.5c0-1.16-.772-2.177-1.884-2.471l-.128.483Zm-.186-8.418V9.94h.5V1.765h-.5Zm-.002-.032.003.048.499-.031-.003-.048-.5.03Zm4.88-.141a.34.34 0 0 1 .335.308l.498-.05a.84.84 0 0 0-.833-.758v.5Zm-.336.337a.34.34 0 0 1 .336-.337v-.5a.84.84 0 0 0-.836.826l.5.01Zm0 1.568V1.923h-.5v1.574h.5Zm-.26.263.079-.022-.137-.481-.078.022.136.48ZM11.68 5.727c0-.913.591-1.71 1.443-1.968l-.146-.479a2.55 2.55 0 0 0-1.797 2.447h.5Zm1.512 1.988a2.05 2.05 0 0 1-1.512-1.988h-.5a2.55 2.55 0 0 0 1.884 2.471l.128-.483Zm.186 8.677V7.956h-.5v8.436h.5Zm.001.045v-.05l-.5.01v.05l.5-.01Zm.167.266a.345.345 0 0 1-.167-.276l-.5.03a.846.846 0 0 0 .41.676l.257-.43Zm.338 0a.33.33 0 0 1-.338 0l-.256.43a.83.83 0 0 0 .85 0l-.256-.43Zm.167-.305a.347.347 0 0 1-.167.305l.255.43a.846.846 0 0 0 .412-.746l-.5.01Zm0-8.442v8.436h.5V7.956h-.5Zm.259-.262-.078.022.138.48.078-.022-.138-.48Zm1.44-1.968a2.06 2.06 0 0 1-1.444 1.969l.146.478a2.56 2.56 0 0 0 1.798-2.446l-.5-.001Zm-1.514-1.987a2.059 2.059 0 0 1 1.514 1.988l.5-.001a2.559 2.559 0 0 0-1.884-2.47l-.13.483Zm-.185-1.816v1.574h.5V1.923h-.5Zm-.003-.032.003.047.5-.03-.004-.048-.499.03ZM9.022 10.9a1.35 1.35 0 0 0-1.486.298l.356.352a.85.85 0 0 1 .937-.19l.193-.46Zm.84 1.272c0-.555-.33-1.058-.84-1.272l-.193.46a.877.877 0 0 1 .532.812h.5ZM8.5 13.548c.754 0 1.36-.62 1.361-1.376h-.5a.87.87 0 0 1-.862.876v.5Zm-1.259-.851c.21.514.706.851 1.259.851v-.5a.862.862 0 0 1-.796-.54l-.463.189Zm.295-1.498a1.388 1.388 0 0 0-.295 1.498l.463-.19a.888.888 0 0 1 .188-.957l-.356-.352Zm5.317-5.472a.87.87 0 0 1 .862-.878v-.5a1.37 1.37 0 0 0-1.362 1.378h.5Zm.861.877a.87.87 0 0 1-.861-.877h-.5a1.37 1.37 0 0 0 1.361 1.377v-.5Zm.863-.878a.872.872 0 0 1-.863.878v.5a1.372 1.372 0 0 0 1.363-1.377h-.5Zm-.862-.877a.87.87 0 0 1 .862.878h.5a1.37 1.37 0 0 0-1.362-1.378v.5Zm-9.909-.71a1.35 1.35 0 0 0-1.486.3l.356.352a.85.85 0 0 1 .937-.19l.193-.462Zm.84 1.272c0-.555-.33-1.058-.84-1.272l-.193.461a.878.878 0 0 1 .534.811h.5ZM3.288 6.789a1.371 1.371 0 0 0 1.36-1.378h-.5a.871.871 0 0 1-.861.878l.001.5Zm-1.26-.85c.21.514.707.85 1.26.85v-.5a.862.862 0 0 1-.798-.54l-.462.19Zm.293-1.5a1.389 1.389 0 0 0-.293 1.5l.462-.19a.889.889 0 0 1 .187-.958L2.32 4.44Z" fill="#B6BED4"/></svg>