<svg xmlns="http://www.w3.org/2000/svg" fill="none" viewBox="0 0 28 26"><path d="m14.428 1.193.613-.733-.009-.007-.604.74Zm-1.085 0-.603-.74-.01.008.613.732ZM1.348 11.213l-.612-.732-.004.003.616.73Zm-.114 1.203-.742.6.014.017.014.017.714-.634Zm1.2.114.581.758.014-.011.014-.012-.61-.735Zm2.313-1.918h.955V8.58L4.138 9.877l.609.735Zm18.25 0 .609-.735-1.564-1.297v2.032h.954Zm2.313 1.918.633-.715-.012-.01-.012-.01-.61.735Zm.543.2-.005-.954h-.011l.016.955Zm.656-.313-.687-.663-.027.029-.025.03.74.604Zm-14.622 10.42h-.955v.954h.955v-.955Zm0-6.013h.955v-.018l-.955.018Zm.857-.859-.018.955h.019v-.955Zm2.285 0v.955h.018l-.018-.955Zm.857.86-.955-.018v.017h.955Zm0 6.011v.955h.954v-.955h-.954Zm11.15-12.355L15.041.46l-1.225 1.465 11.996 10.02 1.224-1.466ZM15.032.452a1.813 1.813 0 0 0-2.292 0l1.207 1.48a.096.096 0 0 1-.122 0l1.207-1.48ZM12.731.46.736 10.48l1.224 1.465 11.995-10.02L12.731.461ZM.732 10.484a1.818 1.818 0 0 0-.24 2.532l1.484-1.2a.091.091 0 0 1-.012.127l-1.232-1.46ZM.52 13.05c.64.721 1.73.825 2.495.237l-1.163-1.514a.071.071 0 0 1 .096.009L.52 13.05Zm2.523.215 2.313-1.918-1.218-1.47-2.314 1.918 1.219 1.47Zm.75-2.653v10.535h1.909V10.612h-1.91Zm0 10.535c0 2.52 2.19 4.419 4.724 4.419v-1.91c-1.636 0-2.815-1.193-2.815-2.509h-1.91Zm4.724 4.419h10.71v-1.91H8.517v1.91Zm10.71 0c2.534 0 4.724-1.899 4.724-4.419h-1.91c0 1.316-1.179 2.51-2.814 2.51v1.909Zm4.724-4.419V10.612h-1.91v10.535h1.91Zm-1.564-9.8 2.314 1.918 1.218-1.47-2.313-1.918-1.219 1.47Zm2.29 1.898c.328.29.753.448 1.192.44l-.032-1.91c.039 0 .077.014.105.04l-1.265 1.43Zm1.18.44a1.808 1.808 0 0 0 1.392-.664l-1.48-1.208a.101.101 0 0 1 .079-.037l.01 1.91Zm1.34-.606c.348-.36.525-.852.49-1.35l-1.905.135a.143.143 0 0 1 .04-.11l1.375 1.325Zm.49-1.35a1.769 1.769 0 0 0-.676-1.269l-1.174 1.507a.144.144 0 0 1-.055-.103l1.905-.136ZM12.842 22.835v-6.012h-1.91v6.012h1.91Zm0-6.03a.11.11 0 0 1-.033.08l-1.351-1.348a1.8 1.8 0 0 0-.526 1.304l1.91-.035Zm-.033.08a.114.114 0 0 1-.082.034l.035-1.91a1.796 1.796 0 0 0-1.305.528l1.352 1.349Zm-.065.034h2.285v-1.91h-2.285v1.91Zm2.302 0a.114.114 0 0 1-.083-.033l1.352-1.349a1.796 1.796 0 0 0-1.304-.527l.035 1.91Zm-.083-.033a.11.11 0 0 1-.032-.08l1.91.035a1.8 1.8 0 0 0-.526-1.304l-1.352 1.349Zm-.032-.063v6.012h1.91v-6.012h-1.91Zm.955 5.058h-3.999v1.91h3.998v-1.91Z" fill="#6E7FAA"/></svg>