<svg xmlns="http://www.w3.org/2000/svg" fill="none" viewBox="0 0 81 81"><g filter="url(#a)"><circle fill="url(#b)" cx="40.207" cy="26.249" r="17.056"/></g><path d="M43.86 23.016h1.583c.725 0 1.319.606 1.319 1.346v6.054c0 .74-.594 1.346-1.32 1.346H34.888c-.726 0-1.32-.605-1.32-1.346v-6.054c0-.74.594-1.346 1.32-1.346h1.583a.589.589 0 0 0 .521-.382l.41-1.253a.589.589 0 0 1 .52-.383h4.487c.218 0 .452.172.52.383l.41 1.252a.588.588 0 0 0 .521.383Zm-5.674 4.037c0-1.115.886-2.018 1.979-2.018s1.979.903 1.979 2.018c0 1.114-.886 2.018-1.98 2.018-1.092 0-1.978-.904-1.978-2.018Zm1.979 3.363c-1.822 0-3.299-1.506-3.299-3.363 0-1.858 1.477-3.364 3.299-3.364 1.821 0 3.298 1.506 3.298 3.364 0 1.857-1.477 3.363-3.298 3.363Zm4.354-5.584c0 .26.207.47.462.47s.462-.21.462-.47-.207-.471-.462-.471a.467.467 0 0 0-.462.47Z" fill="#fff" fill-rule="evenodd" clip-rule="evenodd"/><defs><linearGradient id="b" x1="72.798" x2="41.429" y1="27.621" y2="-3.448" gradientUnits="userSpaceOnUse"><stop stop-color="#F2709C"/><stop offset="1" stop-color="#FF9472"/></linearGradient><filter id="a" width="80.113" height="80.113" x=".151" y=".193" color-interpolation-filters="sRGB" filterUnits="userSpaceOnUse"><feFlood flood-opacity="0" result="BackgroundImageFix"/><feColorMatrix in="SourceAlpha" result="hardAlpha" type="matrix" values="0 0 0 0 0 0 0 0 0 0 0 0 0 0 0 0 0 0 127 0"/><feOffset dy="14"/><feGaussianBlur stdDeviation="11.5"/><feColorMatrix type="matrix" values="0 0 0 0 0.545148 0 0 0 0 0.182458 0 0 0 0 0.252656 0 0 0 0.25 0"/><feBlend in2="BackgroundImageFix" mode="normal" result="effect1_dropShadow_13_170"/><feBlend in="SourceGraphic" in2="effect1_dropShadow_13_170" mode="normal" result="shape"/></filter></defs></svg>