<svg xmlns="http://www.w3.org/2000/svg" fill="none" viewBox="0 0 21 15"><path d="M2.382 2.778a1.215 1.215 0 1 0 0-2.43 1.215 1.215 0 0 0 0 2.43Zm4.686 10.764h12.086c.498 0 .901-.389.901-.868 0-.48-.403-.868-.901-.868H7.068c-.498 0-.901.388-.901.868s.403.868.901.868Zm-3.47-6.077a1.215 1.215 0 1 1-2.431 0 1.215 1.215 0 0 1 2.43 0Zm3.47.521h12.086c.498 0 .902-.388.901-.868 0-.48-.403-.868-.901-.868H7.068c-.498 0-.901.389-.901.868 0 .48.403.868.901.868Zm-3.47 5.035a1.215 1.215 0 1 1-2.431 0 1.215 1.215 0 0 1 2.43 0Zm3.47-10.938h12.086c.498 0 .901-.388.901-.868s-.403-.868-.901-.868H7.068c-.498 0-.901.389-.901.868 0 .48.403.868.901.868Z" fill="#222455" fill-rule="evenodd" clip-rule="evenodd"/><path d="M20.055 7.118h-.25.25ZM3.348 1.563a.965.965 0 0 1-.965.965v.5c.81 0 1.465-.656 1.465-1.465h-.5ZM2.382.597c.533 0 .965.432.965.966h.5c0-.81-.656-1.466-1.465-1.466v.5Zm-.965.966c0-.534.432-.966.965-.966v-.5C1.572.097.917.753.917 1.563h.5Zm.965.965a.965.965 0 0 1-.965-.965h-.5c0 .809.656 1.465 1.465 1.465v-.5Zm16.772 10.764H7.068v.5h12.086v-.5Zm.651-.618c0 .332-.282.618-.651.618v.5c.627 0 1.151-.492 1.151-1.118h-.5Zm-.651-.618c.369 0 .651.285.651.618h.5c0-.627-.524-1.118-1.151-1.118v.5Zm-12.086 0h12.086v-.5H7.068v.5Zm-.651.618c0-.333.282-.618.651-.618v-.5c-.627 0-1.151.491-1.151 1.118h.5Zm.651.618c-.369 0-.651-.286-.651-.618h-.5c0 .626.524 1.118 1.151 1.118v-.5ZM2.382 8.93c.81 0 1.465-.656 1.465-1.466h-.5a.965.965 0 0 1-.965.966v.5ZM.917 7.465c0 .81.656 1.466 1.465 1.466v-.5a.965.965 0 0 1-.965-.966h-.5ZM2.382 6c-.81 0-1.465.656-1.465 1.465h.5c0-.533.432-.965.965-.965V6Zm1.465 1.465C3.847 6.656 3.191 6 2.382 6v.5c.533 0 .965.432.965.965h.5Zm15.307.271H7.068v.5h12.086v-.5Zm.651-.618a.634.634 0 0 1-.651.618v.5c.627 0 1.152-.492 1.151-1.118h-.5Zm-.651-.618c.369 0 .651.286.651.618h.5c0-.626-.524-1.118-1.151-1.118v.5Zm-12.086 0h12.086V6H7.068v.5Zm-.651.618c0-.332.282-.618.651-.618V6c-.627 0-1.151.492-1.151 1.118h.5Zm.651.618a.634.634 0 0 1-.651-.618h-.5c0 .626.524 1.118 1.151 1.118v-.5Zm-4.686 6.75c.81 0 1.465-.656 1.465-1.465h-.5a.965.965 0 0 1-.965.965v.5ZM.917 13.021c0 .81.656 1.465 1.465 1.465v-.5a.965.965 0 0 1-.965-.965h-.5Zm1.465-1.465c-.81 0-1.465.656-1.465 1.465h.5c0-.533.432-.965.965-.965v-.5Zm1.465 1.465c0-.81-.656-1.465-1.465-1.465v.5c.533 0 .965.432.965.965h.5ZM19.154 1.833H7.068v.5h12.086v-.5Zm.651-.618a.634.634 0 0 1-.651.618v.5c.627 0 1.151-.491 1.151-1.118h-.5Zm-.651-.618c.369 0 .651.286.651.618h.5c0-.626-.524-1.118-1.151-1.118v.5Zm-12.086 0h12.086v-.5H7.068v.5Zm-.651.618c0-.332.282-.618.651-.618v-.5c-.627 0-1.151.492-1.151 1.118h.5Zm.651.618a.634.634 0 0 1-.651-.618h-.5c0 .627.524 1.118 1.151 1.118v-.5Z" fill="#222455"/></svg>