<svg xmlns="http://www.w3.org/2000/svg" fill="none" viewBox="0 0 18 24"><path d="M12.736 5.493a3.493 3.493 0 0 1-3.493 3.493v2a5.493 5.493 0 0 0 5.493-5.493h-2ZM9.243 2a3.493 3.493 0 0 1 3.493 3.493h2A5.493 5.493 0 0 0 9.243 0v2ZM5.75 5.493A3.493 3.493 0 0 1 9.243 2V0A5.493 5.493 0 0 0 3.75 5.493h2Zm3.493 3.493A3.493 3.493 0 0 1 5.75 5.493h-2a5.493 5.493 0 0 0 5.493 5.493v-2ZM2.66 18.04a3.542 3.542 0 0 1 3.543-3.543v-2A5.542 5.542 0 0 0 .66 18.04h2Zm0 .419v-.42h-2v.42h2ZM6.203 22a3.542 3.542 0 0 1-3.543-3.542h-2A5.542 5.542 0 0 0 6.203 24v-2Zm6.08 0h-6.08v2h6.08v-2Zm3.542-3.542A3.542 3.542 0 0 1 12.283 22v2a5.542 5.542 0 0 0 5.542-5.542h-2Zm0-.42v.42h2v-.42h-2Zm-3.542-3.542a3.542 3.542 0 0 1 3.542 3.543h2a5.542 5.542 0 0 0-5.542-5.543v2Zm-6.08 0h6.08v-2h-6.08v2Z" fill="#6E7FAA"/></svg>