<svg xmlns="http://www.w3.org/2000/svg" fill="none" viewBox="0 0 24 25"><path d="M18.635 9.944a8.999 8.999 0 0 1-2.354 6.07l6.49 6.597a.831.831 0 0 1 0 1.146.76.76 0 0 1-1.117 0l-6.557-6.65a8.693 8.693 0 0 1-5.28 1.78C4.95 18.887 1 14.867 1 9.944 1 5.02 4.95 1 9.817 1c4.868 0 8.818 4.02 8.818 8.944ZM9.817 2.619c-3.99 0-7.221 3.291-7.221 7.325 0 4.033 3.232 7.325 7.221 7.325 3.99 0 7.222-3.278 7.222-7.325 0-4.047-3.245-7.325-7.222-7.325Z" fill="#fff" fill-rule="evenodd" clip-rule="evenodd"/><path d="m16.28 16.014-.184-.168-.16.175.166.168.179-.175Zm6.49 6.597.182-.172-.003-.004-.178.176Zm0 1.146-.178-.176-.007.009.186.167Zm-1.116 0-.179.176.178-.176Zm-6.557-6.65.178-.176-.154-.156-.175.133.151.199Zm1.368-.925a9.248 9.248 0 0 0 2.42-6.238h-.5a8.749 8.749 0 0 1-2.29 5.902l.37.336Zm6.484 6.253-6.49-6.596-.357.35 6.49 6.597.357-.35Zm0 1.498c.403-.41.398-1.076.003-1.494l-.363.343c.217.23.212.589.004.8l.356.35Zm-.737.317c.262 0 .545-.105.744-.325l-.37-.335a.51.51 0 0 1-.374.16v.5Zm-.737-.317c.205.207.468.317.737.317v-.5a.533.533 0 0 1-.38-.168l-.357.35Zm-6.556-6.65 6.556 6.65.356-.351-6.556-6.65-.356.35Zm-5.102 1.854c2.039 0 3.913-.68 5.431-1.831l-.302-.398a8.443 8.443 0 0 1-5.129 1.73v.5ZM.75 9.944c0 5.058 4.058 9.193 9.067 9.193v-.5c-4.726 0-8.567-3.904-8.567-8.693h-.5ZM9.817.75C4.808.75.75 4.885.75 9.944h.5c0-4.79 3.841-8.694 8.567-8.694v-.5Zm9.068 9.194c0-5.059-4.059-9.194-9.068-9.194v.5c4.726 0 8.568 3.904 8.568 8.694h.5Zm-16.04 0c0-3.9 3.124-7.075 6.972-7.075v-.5c-4.131 0-7.471 3.407-7.471 7.575h.5Zm6.972 7.075c-3.848 0-6.971-3.176-6.971-7.075h-.5c0 4.168 3.34 7.575 7.471 7.575v-.5Zm6.972-7.075c0 3.912-3.123 7.075-6.972 7.075v.5c4.131 0 7.472-3.394 7.472-7.575h-.5ZM9.817 2.869c3.836 0 6.972 3.163 6.972 7.075h.5c0-4.182-3.354-7.575-7.472-7.575v.5Z" fill="#fff"/></svg>